<svg xmlns="http://www.w3.org/2000/svg" version="1.1" xmlns:xlink="http://www.w3.org/1999/xlink" xmlns:svgjs="http://svgjs.com/svgjs" width="1440" height="560" preserveAspectRatio="none" viewBox="0 0 1440 560"><g mask="url(&quot;#SvgjsMask1021&quot;)" fill="none"><path d="M226.04 463.8 a173.54 173.54 0 1 0 347.08 0 a173.54 173.54 0 1 0 -347.08 0z" fill="rgba(12, 211, 166, 0.4)" class="triangle-float1"></path><path d="M958.058,507.74C1010.722,507.783,1038.562,451.849,1065.031,406.32C1091.713,360.425,1126.468,308.614,1100.859,262.112C1074.781,214.759,1012.116,211.684,958.058,212.076C904.94,212.461,844.382,217.604,818.795,264.155C793.725,309.766,825.554,360.961,851.387,406.145C877.508,451.834,905.429,507.697,958.058,507.74" fill="rgba(12, 211, 166, 0.4)" class="triangle-float2"></path><path d="M283.991,516.107C310.335,516.176,337.817,510.923,352.618,489.13C369.234,464.664,374.422,431.407,358.396,406.55C343.269,383.088,311.904,382.306,283.991,382.684C257.002,383.05,227.564,385.797,212.998,408.52C197.514,432.674,200.184,464.823,215.986,488.77C230.408,510.626,257.806,516.038,283.991,516.107" fill="rgba(12, 211, 166, 0.4)" class="triangle-float3"></path><path d="M1400.137,291.674C1442.433,289.822,1468.792,251.471,1490.696,215.24C1513.749,177.109,1541.901,132.559,1519.682,93.936C1497.435,55.263,1444.753,57.912,1400.137,57.817C1355.271,57.722,1303.76,55.552,1279.708,93.426C1254.569,133.011,1270.37,183.742,1294.716,223.82C1317.97,262.1,1355.39,293.633,1400.137,291.674" fill="rgba(12, 211, 166, 0.4)" class="triangle-float2"></path><path d="M45.47,168.216C76.259,167.075,94.698,138.143,110.716,111.824C127.724,83.879,148.747,52.261,133.73,23.197C117.993,-7.26,79.743,-15.235,45.47,-14.455C12.779,-13.711,-20.025,-1.416,-36.099,27.06C-51.946,55.133,-44.857,89.08,-28.728,116.992C-12.611,144.882,13.28,169.409,45.47,168.216" fill="rgba(12, 211, 166, 0.4)" class="triangle-float1"></path><path d="M1384.403,349.959C1412.163,349.254,1437.656,336.154,1452.668,312.792C1469.116,287.195,1478.247,254.327,1462.633,228.213C1447.298,202.566,1414.244,197.056,1384.403,198.62C1357.635,200.023,1333.528,213.08,1319.194,235.731C1303.676,260.253,1295.472,291.215,1309.859,316.417C1324.337,341.779,1355.208,350.7,1384.403,349.959" fill="rgba(12, 211, 166, 0.4)" class="triangle-float2"></path><path d="M1026.06 376.33 a108.58 108.58 0 1 0 217.16 0 a108.58 108.58 0 1 0 -217.16 0z" fill="rgba(12, 211, 166, 0.4)" class="triangle-float1"></path><path d="M1094.62,706.016C1144.305,707.709,1192.328,681.418,1215.78,637.583C1238.119,595.829,1227.608,545.451,1201.746,505.783C1178.335,469.875,1137.485,451.513,1094.62,451.747C1052.204,451.979,1011.452,470.646,989.504,506.943C966.79,544.507,966.465,590.969,986.962,629.788C1008.968,671.463,1047.519,704.411,1094.62,706.016" fill="rgba(12, 211, 166, 0.4)" class="triangle-float3"></path></g><defs><mask id="SvgjsMask1021"><rect width="1440" height="560" fill="#ffffff"></rect></mask><style>
            @keyframes float1 {
                0%{transform: translate(0, 0)}
                50%{transform: translate(-10px, 0)}
                100%{transform: translate(0, 0)}
            }

            .triangle-float1 {
                animation: float1 5s infinite;
            }

            @keyframes float2 {
                0%{transform: translate(0, 0)}
                50%{transform: translate(-5px, -5px)}
                100%{transform: translate(0, 0)}
            }

            .triangle-float2 {
                animation: float2 4s infinite;
            }

            @keyframes float3 {
                0%{transform: translate(0, 0)}
                50%{transform: translate(0, -10px)}
                100%{transform: translate(0, 0)}
            }

            .triangle-float3 {
                animation: float3 6s infinite;
            }
        </style></defs></svg>